<svg xmlns="http://www.w3.org/2000/svg" width="23" height="31" viewBox="0 0 23 31" fill="none">
<path d="M22.6777 28.0433C22.6777 28.4968 22.5512 28.9416 22.3119 29.329C22.0727 29.7164 21.73 30.0315 21.3213 30.2398C20.9126 30.4481 20.4537 30.5416 19.9947 30.5101C19.5357 30.4786 19.0944 30.3233 18.7189 30.0612L1.15761 17.7882C0.831399 17.5608 0.564994 17.2599 0.380567 16.9106C0.19614 16.5612 0.099027 16.1735 0.0973104 15.7797C0.0955919 15.3859 0.189319 14.9973 0.370691 14.6464C0.552062 14.2955 0.815835 13.9924 1.14005 13.7623L18.7014 1.30625C19.076 1.03988 19.518 0.880642 19.9786 0.846084C20.4392 0.811527 20.9005 0.90299 21.3117 1.1104C21.723 1.3178 22.0681 1.6331 22.3091 2.02153C22.5502 2.40996 22.6777 2.85644 22.6777 3.31177L22.6777 28.0433Z" fill="#7733FF"/>
</svg>