<svg xmlns="http://www.w3.org/2000/svg" width="23" height="31" viewBox="0 0 23 31" fill="none">
<path d="M0.322266 3.31168C0.322283 2.85816 0.448826 2.41338 0.688055 2.02598C0.927284 1.63858 1.26998 1.3235 1.67867 1.11518C2.08736 0.906861 2.5463 0.813339 3.00528 0.844841C3.46427 0.876343 3.90563 1.03166 4.28109 1.29379L21.8424 13.5668C22.1686 13.7942 22.435 14.0951 22.6194 14.4444C22.8039 14.7938 22.901 15.1815 22.9027 15.5753C22.9044 15.9691 22.8107 16.3577 22.6293 16.7086C22.4479 17.0595 22.1842 17.3626 21.8599 17.5927L4.29865 30.0487C3.924 30.3151 3.48203 30.4743 3.02143 30.5089C2.56083 30.5435 2.09949 30.452 1.68827 30.2446C1.27704 30.0372 0.931892 29.7219 0.690862 29.3335C0.449833 28.945 0.322281 28.4985 0.322266 28.0432V3.31168Z" fill="#7733FF"/>
</svg>